<svg width="17" height="20" viewBox="0 0 17 20" fill="none" xmlns="http://www.w3.org/2000/svg">
<path d="M7.15789 15.6579C7.15789 16.0138 7.29929 16.3552 7.55099 16.6069C7.80268 16.8586 8.14405 17 8.5 17C8.85595 17 9.19732 16.8586 9.44901 16.6069C9.70071 16.3552 9.8421 16.0138 9.8421 15.6579V9.8421H15.6579C16.0138 9.8421 16.3552 9.70071 16.6069 9.44901C16.8586 9.19732 17 8.85595 17 8.5C17 8.14405 16.8586 7.80268 16.6069 7.55099C16.3552 7.29929 16.0138 7.15789 15.6579 7.15789H9.8421V1.34211C9.8421 0.986157 9.70071 0.644787 9.44901 0.393094C9.19732 0.1414 8.85595 0 8.5 0C8.14405 0 7.80268 0.1414 7.55099 0.393094C7.29929 0.644787 7.15789 0.986157 7.15789 1.34211V7.15789H1.34211C0.986157 7.15789 0.644787 7.29929 0.393094 7.55099C0.1414 7.80268 0 8.14405 0 8.5C0 8.85595 0.1414 9.19732 0.393094 9.44901C0.644787 9.70071 0.986157 9.8421 1.34211 9.8421H7.15789V15.6579Z" fill="white"/>
</svg>
