<svg width="25" height="27" viewBox="0 0 25 27" fill="none" xmlns="http://www.w3.org/2000/svg">
<path fill-rule="evenodd" clip-rule="evenodd" d="M25 20.0271C24.9982 20.0935 24.9916 20.1596 24.98 20.2251C25.0101 20.3754 25.0056 20.5303 24.9667 20.6787C24.9278 20.8271 24.8555 20.9654 24.755 21.0835C24.6545 21.2017 24.5283 21.2969 24.3855 21.3622C24.2426 21.4276 24.0866 21.4615 23.9286 21.4615H3.92857C3.69407 21.4615 3.46186 21.5063 3.24521 21.5933C3.02856 21.6803 2.8317 21.8078 2.66588 21.9685C2.50006 22.1292 2.36853 22.32 2.27879 22.53C2.18905 22.74 2.14286 22.965 2.14286 23.1923C2.14286 23.4196 2.18905 23.6447 2.27879 23.8546C2.36853 24.0646 2.50006 24.2554 2.66588 24.4161C2.8317 24.5769 3.02856 24.7044 3.24521 24.7913C3.46186 24.8783 3.69407 24.9231 3.92857 24.9231H23.9286C24.2127 24.9231 24.4853 25.0325 24.6862 25.2272C24.8871 25.422 25 25.6861 25 25.9615C25 26.237 24.8871 26.5011 24.6862 26.6958C24.4853 26.8906 24.2127 27 23.9286 27H3.92857C2.88665 27 1.8874 26.5988 1.15065 25.8848C0.413902 25.1707 0 24.2022 0 23.1923V3.80769C0 2.79783 0.413902 1.82933 1.15065 1.11525C1.8874 0.401167 2.88665 0 3.92857 0H23.0714C24.1371 0 25 0.836308 25 1.86923V20.0271ZM8.21429 5.53846C7.93013 5.53846 7.6576 5.64787 7.45667 5.84262C7.25574 6.03737 7.14286 6.30151 7.14286 6.57692C7.14286 6.85234 7.25574 7.11648 7.45667 7.31123C7.6576 7.50598 7.93013 7.61538 8.21429 7.61539H16.7857C17.0699 7.61538 17.3424 7.50598 17.5433 7.31123C17.7443 7.11648 17.8571 6.85234 17.8571 6.57692C17.8571 6.30151 17.7443 6.03737 17.5433 5.84262C17.3424 5.64787 17.0699 5.53846 16.7857 5.53846H8.21429Z" fill="white"/>
</svg>
