<svg width="28" height="28" viewBox="0 0 28 28" fill="none" xmlns="http://www.w3.org/2000/svg">
<path fill-rule="evenodd" clip-rule="evenodd" d="M2.013 2.013C0 4.02875 0 7.26825 0 13.75C0 20.2318 0 23.4726 2.013 25.4856C4.02875 27.5 7.26825 27.5 13.75 27.5C20.2318 27.5 23.4726 27.5 25.4856 25.4856C27.5 23.474 27.5 20.2318 27.5 13.75C27.5 7.26825 27.5 4.02738 25.4856 2.013C23.474 0 20.2318 0 13.75 0C7.26825 0 4.02738 0 2.013 2.013ZM11.748 7.58588C11.8414 7.48774 11.9145 7.37217 11.9632 7.24578C12.0118 7.11939 12.0352 6.98464 12.0318 6.84924C12.0284 6.71383 11.9984 6.58042 11.9434 6.45661C11.8885 6.33281 11.8097 6.22104 11.7116 6.12769C11.6134 6.03433 11.4979 5.96122 11.3715 5.91253C11.2451 5.86384 11.1103 5.84052 10.9749 5.84391C10.8395 5.84729 10.7061 5.87731 10.5823 5.93225C10.4585 5.9872 10.3467 6.06599 10.2534 6.16412L7.07163 9.50537L6.24663 8.63912C6.15428 8.53708 6.04245 8.45454 5.91771 8.39639C5.79297 8.33823 5.65786 8.30564 5.52032 8.30052C5.38279 8.2954 5.24563 8.31786 5.11691 8.36658C4.98819 8.4153 4.87053 8.48929 4.77086 8.58419C4.67118 8.67909 4.59151 8.79298 4.53654 8.91916C4.48157 9.04533 4.45241 9.18123 4.45078 9.31885C4.44915 9.45646 4.47509 9.59301 4.52706 9.72045C4.57902 9.84789 4.65597 9.96364 4.75337 10.0609L6.325 11.7109C6.42131 11.812 6.53715 11.8924 6.66549 11.9474C6.79383 12.0024 6.932 12.0308 7.07163 12.0308C7.21125 12.0308 7.34942 12.0024 7.47776 11.9474C7.6061 11.8924 7.72194 11.812 7.81825 11.7109L11.748 7.58588ZM15.125 8.59375C14.8515 8.59375 14.5892 8.7024 14.3958 8.8958C14.2024 9.08919 14.0938 9.3515 14.0938 9.625C14.0938 9.8985 14.2024 10.1608 14.3958 10.3542C14.5892 10.5476 14.8515 10.6562 15.125 10.6562H22C22.2735 10.6562 22.5358 10.5476 22.7292 10.3542C22.9226 10.1608 23.0312 9.8985 23.0312 9.625C23.0312 9.3515 22.9226 9.08919 22.7292 8.8958C22.5358 8.7024 22.2735 8.59375 22 8.59375H15.125ZM11.7466 17.2109C11.844 17.1136 11.921 16.9979 11.9729 16.8705C12.0249 16.743 12.0508 16.6065 12.0492 16.4688C12.0476 16.3312 12.0184 16.1953 11.9635 16.0692C11.9085 15.943 11.8288 15.8291 11.7291 15.7342C11.6295 15.6393 11.5118 15.5653 11.3831 15.5166C11.2544 15.4679 11.1172 15.4454 10.9797 15.4505C10.8421 15.4556 10.707 15.4882 10.5823 15.5464C10.4576 15.6045 10.3457 15.6871 10.2534 15.7891L7.07163 19.1304L6.24663 18.2641C6.15428 18.1621 6.04245 18.0795 5.91771 18.0214C5.79297 17.9632 5.65786 17.9306 5.52032 17.9255C5.38279 17.9204 5.24563 17.9429 5.11691 17.9916C4.98819 18.0403 4.87053 18.1143 4.77086 18.2092C4.67118 18.3041 4.59151 18.418 4.53654 18.5442C4.48157 18.6703 4.45241 18.8062 4.45078 18.9438C4.44915 19.0815 4.47509 19.218 4.52706 19.3455C4.57902 19.4729 4.65597 19.5886 4.75337 19.6859L6.325 21.3359C6.42131 21.437 6.53715 21.5174 6.66549 21.5724C6.79383 21.6274 6.932 21.6558 7.07163 21.6558C7.21125 21.6558 7.34942 21.6274 7.47776 21.5724C7.6061 21.5174 7.72194 21.437 7.81825 21.3359L11.7466 17.2109ZM15.125 18.2188C14.8515 18.2188 14.5892 18.3274 14.3958 18.5208C14.2024 18.7142 14.0938 18.9765 14.0938 19.25C14.0938 19.5235 14.2024 19.7858 14.3958 19.9792C14.5892 20.1726 14.8515 20.2812 15.125 20.2812H22C22.2735 20.2812 22.5358 20.1726 22.7292 19.9792C22.9226 19.7858 23.0312 19.5235 23.0312 19.25C23.0312 18.9765 22.9226 18.7142 22.7292 18.5208C22.5358 18.3274 22.2735 18.2188 22 18.2188H15.125Z" fill="white"/>
</svg>
