<svg width="103" height="41" viewBox="0 0 103 41" fill="none" xmlns="http://www.w3.org/2000/svg">
<g filter="url(#filter0_d_847_7297)">
<rect x="2" y="2" width="99" height="37" rx="18.5" fill="#F0F0F0" shape-rendering="crispEdges"/>
<path d="M24 18.5L20 22.5M20 22.5L24 26.5M20 22.5H31C32.0609 22.5 33.0783 22.0786 33.8284 21.3284C34.5786 20.5783 35 19.5609 35 18.5C35 17.4391 34.5786 16.4217 33.8284 15.6716C33.0783 14.9214 32.0609 14.5 31 14.5H30" stroke="#848383" stroke-width="2" stroke-linecap="round" stroke-linejoin="round"/>
<path d="M55.8594 27H53.8203L52.8125 24.1484H48.4062L47.4375 27H45.4062L49.6016 15.7969H51.6953L55.8594 27ZM52.3203 22.6328L50.7656 18.1641C50.7188 18.0182 50.6693 17.7839 50.6172 17.4609H50.5859C50.5391 17.7578 50.487 17.9922 50.4297 18.1641L48.8906 22.6328H52.3203ZM61.1562 26.9141C60.8021 27.0911 60.3359 27.1797 59.7578 27.1797C58.2057 27.1797 57.4297 26.4349 57.4297 24.9453V20.4219H56.0938V19H57.4297V17.1484L59.2422 16.6328V19H61.1562V20.4219H59.2422V24.4219C59.2422 24.8958 59.3281 25.2344 59.5 25.4375C59.6719 25.6406 59.9583 25.7422 60.3594 25.7422C60.6667 25.7422 60.9323 25.6536 61.1562 25.4766V26.9141ZM67.3594 20.7266C67.1406 20.5547 66.8255 20.4688 66.4141 20.4688C65.8776 20.4688 65.4297 20.7109 65.0703 21.1953C64.7109 21.6797 64.5312 22.3385 64.5312 23.1719V27H62.7188V19H64.5312V20.6484H64.5625C64.7396 20.0859 65.0104 19.6484 65.375 19.3359C65.7448 19.0182 66.1562 18.8594 66.6094 18.8594C66.9375 18.8594 67.1875 18.9089 67.3594 19.0078V20.7266ZM74.7812 27H73.0234V25.75H72.9922C72.4401 26.7083 71.6302 27.1875 70.5625 27.1875C69.776 27.1875 69.1589 26.974 68.7109 26.5469C68.2682 26.1198 68.0469 25.5547 68.0469 24.8516C68.0469 23.3411 68.9167 22.4609 70.6562 22.2109L73.0312 21.875C73.0312 20.7344 72.4896 20.1641 71.4062 20.1641C70.4531 20.1641 69.5938 20.4922 68.8281 21.1484V19.5625C69.6719 19.0625 70.6458 18.8125 71.75 18.8125C73.7708 18.8125 74.7812 19.8073 74.7812 21.7969V27ZM73.0312 23.0703L71.3516 23.3047C70.8307 23.3724 70.4375 23.5 70.1719 23.6875C69.9115 23.8698 69.7812 24.1927 69.7812 24.6562C69.7812 24.9948 69.901 25.2734 70.1406 25.4922C70.3854 25.7057 70.7109 25.8125 71.1172 25.8125C71.6693 25.8125 72.125 25.6198 72.4844 25.2344C72.849 24.8438 73.0312 24.3542 73.0312 23.7656V23.0703ZM73.9297 14.9219L71.6953 17.4844H70.3516L72.2422 14.9219H73.9297ZM76.5 26.75V25.0703C77.1771 25.5859 77.9245 25.8438 78.7422 25.8438C79.8359 25.8438 80.3828 25.5208 80.3828 24.875C80.3828 24.6927 80.3359 24.5391 80.2422 24.4141C80.1484 24.2839 80.0208 24.1693 79.8594 24.0703C79.7031 23.9714 79.5156 23.8828 79.2969 23.8047C79.0833 23.7266 78.8438 23.638 78.5781 23.5391C78.25 23.4089 77.9531 23.2708 77.6875 23.125C77.4271 22.9792 77.2083 22.8151 77.0312 22.6328C76.8594 22.4453 76.7292 22.2344 76.6406 22C76.5521 21.7656 76.5078 21.4922 76.5078 21.1797C76.5078 20.7943 76.599 20.4557 76.7812 20.1641C76.9635 19.8672 77.2083 19.6198 77.5156 19.4219C77.8229 19.2188 78.1719 19.0677 78.5625 18.9688C78.9531 18.8646 79.3568 18.8125 79.7734 18.8125C80.513 18.8125 81.1745 18.9245 81.7578 19.1484V20.7344C81.1953 20.349 80.5495 20.1562 79.8203 20.1562C79.5911 20.1562 79.3828 20.1797 79.1953 20.2266C79.013 20.2734 78.8568 20.3385 78.7266 20.4219C78.5964 20.5052 78.4948 20.6068 78.4219 20.7266C78.349 20.8411 78.3125 20.9688 78.3125 21.1094C78.3125 21.2812 78.349 21.4271 78.4219 21.5469C78.4948 21.6667 78.6016 21.7734 78.7422 21.8672C78.888 21.9557 79.0599 22.0391 79.2578 22.1172C79.4609 22.1901 79.6927 22.2708 79.9531 22.3594C80.2969 22.5 80.6042 22.6432 80.875 22.7891C81.151 22.9349 81.3854 23.1016 81.5781 23.2891C81.7708 23.4714 81.9193 23.6849 82.0234 23.9297C82.1276 24.1693 82.1797 24.4557 82.1797 24.7891C82.1797 25.1953 82.0859 25.5495 81.8984 25.8516C81.7109 26.1536 81.4609 26.4036 81.1484 26.6016C80.8359 26.7995 80.474 26.9453 80.0625 27.0391C79.6562 27.138 79.2266 27.1875 78.7734 27.1875C77.8984 27.1875 77.1406 27.0417 76.5 26.75Z" fill="#848383"/>
</g>
<defs>
<filter id="filter0_d_847_7297" x="0" y="0" width="103" height="41" filterUnits="userSpaceOnUse" color-interpolation-filters="sRGB">
<feFlood flood-opacity="0" result="BackgroundImageFix"/>
<feColorMatrix in="SourceAlpha" type="matrix" values="0 0 0 0 0 0 0 0 0 0 0 0 0 0 0 0 0 0 127 0" result="hardAlpha"/>
<feOffset/>
<feGaussianBlur stdDeviation="1"/>
<feComposite in2="hardAlpha" operator="out"/>
<feColorMatrix type="matrix" values="0 0 0 0 0 0 0 0 0 0 0 0 0 0 0 0 0 0 0.25 0"/>
<feBlend mode="normal" in2="BackgroundImageFix" result="effect1_dropShadow_847_7297"/>
<feBlend mode="normal" in="SourceGraphic" in2="effect1_dropShadow_847_7297" result="shape"/>
</filter>
</defs>
</svg>
