<svg width="13" height="13" viewBox="0 0 13 13" fill="none" xmlns="http://www.w3.org/2000/svg">
<path d="M12.7716 11.6684L9.83125 8.72812C10.5392 7.78574 10.9213 6.63865 10.92 5.46C10.92 2.44938 8.47062 0 5.46 0C2.44938 0 0 2.44938 0 5.46C0 8.47062 2.44938 10.92 5.46 10.92C6.63865 10.9213 7.78574 10.5392 8.72812 9.83125L11.6684 12.7716C11.8173 12.9046 12.0114 12.9756 12.211 12.97C12.4105 12.9645 12.6004 12.8827 12.7415 12.7415C12.8827 12.6004 12.9645 12.4105 12.97 12.211C12.9756 12.0114 12.9046 11.8173 12.7716 11.6684ZM1.56 5.46C1.56 4.68865 1.78873 3.93463 2.21727 3.29328C2.64581 2.65192 3.2549 2.15205 3.96753 1.85687C4.68017 1.56169 5.46433 1.48446 6.22085 1.63494C6.97738 1.78542 7.67229 2.15686 8.21772 2.70228C8.76314 3.24771 9.13458 3.94262 9.28506 4.69915C9.43554 5.45567 9.35831 6.23983 9.06313 6.95247C8.76795 7.6651 8.26808 8.27419 7.62672 8.70273C6.98537 9.13127 6.23135 9.36 5.46 9.36C4.42604 9.35876 3.43478 8.94747 2.70365 8.21635C1.97253 7.48522 1.56124 6.49396 1.56 5.46Z" fill="#848383"/>
</svg>
