<svg width="21" height="21" viewBox="0 0 21 21" fill="none" xmlns="http://www.w3.org/2000/svg">
<path fill-rule="evenodd" clip-rule="evenodd" d="M10.285 20.57C13.0128 20.57 15.6288 19.4864 17.5576 17.5576C19.4864 15.6288 20.57 13.0128 20.57 10.285C20.57 7.55725 19.4864 4.94122 17.5576 3.01241C15.6288 1.0836 13.0128 0 10.285 0C7.55725 0 4.94122 1.0836 3.01241 3.01241C1.0836 4.94122 0 7.55725 0 10.285C0 13.0128 1.0836 15.6288 3.01241 17.5576C4.94122 19.4864 7.55725 20.57 10.285 20.57ZM10.285 5.87714C9.86772 5.87714 9.58856 6.3767 9.03023 7.38022L8.88624 7.63882C8.72756 7.92386 8.64822 8.06491 8.5248 8.15895C8.39991 8.25298 8.24563 8.28824 7.93708 8.3573L7.65792 8.42195C6.57359 8.66732 6.03142 8.78927 5.90212 9.20361C5.77282 9.61795 6.14308 10.0514 6.88214 10.9153L7.07314 11.1387C7.28325 11.384 7.38904 11.506 7.43606 11.6588C7.48307 11.8116 7.46691 11.9747 7.43606 12.3023L7.40667 12.6006C7.29501 13.754 7.23917 14.3314 7.57564 14.5871C7.91357 14.8427 8.42195 14.6091 9.43722 14.1419L9.69876 14.0214C9.98821 13.8892 10.1322 13.823 10.285 13.823C10.4378 13.823 10.5818 13.8892 10.8712 14.0214L11.1328 14.1419C12.1481 14.6106 12.6564 14.8427 12.9944 14.5871C13.3323 14.3314 13.275 13.754 13.1633 12.6006L13.1339 12.3023C13.1031 11.9747 13.0869 11.8116 13.1339 11.6588C13.181 11.506 13.2868 11.384 13.4969 11.1387L13.6879 10.9153C14.4269 10.0514 14.7972 9.61942 14.6679 9.20361C14.5386 8.78927 13.9964 8.66732 12.9121 8.42195L12.6329 8.3573C12.3244 8.28824 12.1701 8.25445 12.0452 8.15895C11.9218 8.06491 11.8424 7.92386 11.6838 7.63882L11.5398 7.38022C10.9814 6.3767 10.7023 5.87714 10.285 5.87714Z" fill="white"/>
</svg>
