<svg width="21" height="25" viewBox="0 0 21 25" fill="none" xmlns="http://www.w3.org/2000/svg">
<path fill-rule="evenodd" clip-rule="evenodd" d="M0 9.12222V15.8778C0 19.0639 1.47259e-07 20.6556 0.891882 21.6458C1.701 22.5444 2.95976 22.6264 5.334 22.6347C5.20924 21.6972 5.18329 20.5792 5.17588 19.2625C5.17588 19.1285 5.19938 18.9958 5.24502 18.8721C5.29066 18.7483 5.35756 18.6358 5.44189 18.5412C5.52621 18.4465 5.62631 18.3714 5.73646 18.3203C5.84661 18.2691 5.96465 18.2429 6.08382 18.2431C6.20306 18.2414 6.32141 18.2662 6.43213 18.316C6.54285 18.3657 6.64377 18.4396 6.72911 18.5332C6.81446 18.6268 6.88256 18.7384 6.92953 18.8617C6.97651 18.9849 7.00143 19.1173 7.00288 19.2514C7.01029 20.7292 7.04365 21.7764 7.17582 22.5708C7.30306 23.3375 7.50565 23.7792 7.80212 24.1097C8.13935 24.4847 8.61247 24.7278 9.50682 24.8597C10.4259 24.9986 11.6439 25 13.3918 25H14.6086C16.3565 25 17.5745 24.9972 18.4948 24.8611C19.3879 24.7278 19.8611 24.4833 20.1971 24.1097C20.5343 23.7347 20.7542 23.2097 20.874 22.2181C20.9975 21.1986 21 19.8444 21 17.9056V7.09444C21 5.15417 20.9975 3.80278 20.874 2.78194C20.7542 1.79028 20.5343 1.26389 20.1983 0.890278C19.8611 0.515278 19.3879 0.272222 18.4936 0.140278C17.5758 9.31323e-08 16.3578 0 14.6098 0H13.3931C11.6451 0 10.4271 0.00277765 9.50682 0.138889C8.61371 0.272222 8.14059 0.516667 7.80335 0.890278C7.50688 1.21944 7.30429 1.6625 7.17706 2.42917C7.04488 3.22361 7.01153 4.27083 7.00412 5.74861C7.00267 5.88267 6.97774 6.0151 6.93077 6.13833C6.88379 6.26156 6.81569 6.37318 6.73035 6.46681C6.645 6.56044 6.54409 6.63426 6.43337 6.68404C6.32265 6.73382 6.20429 6.7586 6.08506 6.75694C5.96588 6.75713 5.84785 6.73089 5.7377 6.67974C5.62755 6.62859 5.52745 6.55353 5.44312 6.45885C5.3588 6.36416 5.2919 6.25172 5.24625 6.12795C5.20061 6.00417 5.17712 5.87149 5.17712 5.7375C5.18453 4.42083 5.21047 3.30278 5.33524 2.36528C2.961 2.37361 1.70347 2.45556 0.893118 3.35417C0.00123535 4.34444 0 5.9375 0 9.12222ZM3.00794 13.2167C2.92323 13.1232 2.85594 13.0117 2.81001 12.8886C2.76407 12.7656 2.74042 12.6335 2.74042 12.5C2.74042 12.3665 2.76407 12.2344 2.81001 12.1114C2.85594 11.9883 2.92323 11.8768 3.00794 11.7833L5.44147 9.08055C5.61382 8.89004 5.84584 8.78328 6.08753 8.78328C6.32922 8.78328 6.56124 8.89004 6.73359 9.08055C6.8183 9.17403 6.88559 9.28556 6.93152 9.40861C6.97746 9.53166 7.00111 9.66377 7.00111 9.79722C7.00111 9.93067 6.97746 10.0628 6.93152 10.1858C6.88559 10.3089 6.8183 10.4204 6.73359 10.5139L5.85653 11.4861H14.6098C15.1138 11.4861 15.5239 11.9403 15.5239 12.5C15.5239 13.0597 15.1138 13.5139 14.6098 13.5139H5.85529L6.73235 14.4861C6.81706 14.5796 6.88435 14.6911 6.93029 14.8142C6.97622 14.9372 6.99988 15.0693 6.99988 15.2028C6.99988 15.3362 6.97622 15.4683 6.93029 15.5914C6.88435 15.7144 6.81706 15.826 6.73235 15.9194C6.56 16.11 6.32799 16.2167 6.08629 16.2167C5.8446 16.2167 5.61258 16.11 5.44024 15.9194L3.00794 13.2167Z" fill="white"/>
</svg>
