<svg width="34" height="27" viewBox="0 0 34 27" fill="none" xmlns="http://www.w3.org/2000/svg">
<path d="M11.0501 18.5625C10.9231 18.5625 10.7961 18.581 10.675 18.62C9.9865 18.842 9.26241 18.9844 8.50006 18.9844C7.73772 18.9844 7.01363 18.842 6.3246 18.62C6.20348 18.581 6.07704 18.5625 5.95007 18.5625C2.65314 18.5625 -0.0174454 21.2245 8.58221e-05 24.5014C0.0075233 25.8862 1.15449 27 2.55008 27H14.45C15.8456 27 16.9926 25.8862 17 24.5014C17.0176 21.2245 14.347 18.5625 11.0501 18.5625ZM8.50006 16.875C11.3167 16.875 13.6001 14.6085 13.6001 11.8125C13.6001 9.01652 11.3167 6.75 8.50006 6.75C5.68338 6.75 3.40008 9.01652 3.40008 11.8125C3.40008 14.6085 5.68338 16.875 8.50006 16.875ZM31.45 0H11.0501C9.64384 0 8.50006 1.17334 8.50006 2.6151V5.0625C9.74425 5.0625 10.896 5.42004 11.9001 6.00117V3.375H30.6V18.5625H27.2V15.1875H20.4V18.5625H16.3498C17.3645 19.4426 18.1093 20.6049 18.4583 21.9375H31.45C32.8562 21.9375 34 20.7642 34 19.3224V2.6151C34 1.17334 32.8562 0 31.45 0Z" fill="white"/>
</svg>
