<svg width="15" height="18" viewBox="0 0 15 18" fill="none" xmlns="http://www.w3.org/2000/svg">
<path d="M13.4583 2.375C13.6683 2.375 13.8697 2.45841 14.0181 2.60687C14.1666 2.75534 14.25 2.9567 14.25 3.16667C14.25 3.37663 14.2321 3.71635 14.1251 3.91699C14.0181 4.11763 13.8351 4.41699 13.6251 4.41699H13.1251H12.6251L11.9257 14.3624C11.8972 14.7619 11.7185 15.1357 11.4254 15.4087C11.1324 15.6816 10.7468 15.8333 10.3463 15.8333H3.90292C3.50244 15.8333 3.11684 15.6816 2.82378 15.4087C2.53072 15.1357 2.35198 14.7619 2.32354 14.3624L1.58492 4.01533L1.62513 4.41699H0.791667C0.625 4.41699 0.16419 4.01533 0.125111 3.91699C-0.000127152 3.72559 0 3.37663 0 3.16667C0 2.9567 0.0834075 2.75534 0.231874 2.60687C0.38034 2.45841 0.581704 2.375 0.791667 2.375H13.4583ZM10.6251 4.41699H3.90292L4.457 14.25H9.95457L10.6251 4.41699ZM8.70833 0C8.9183 0 9.11966 0.0834075 9.26813 0.231874C9.41659 0.38034 9.5 0.581704 9.5 0.791667C9.5 1.00163 9.41659 1.20299 9.26813 1.35146C9.11966 1.49993 8.9183 1.64342 8.70833 1.64342H5.54167C5.3317 1.64342 5.13034 1.49993 4.98187 1.35146C4.83341 1.20299 4.75 1.00163 4.75 0.791667C4.75 0.581704 4.83341 0.38034 4.98187 0.231874C5.13034 0.0834075 5.3317 0 5.54167 0H8.70833Z" fill="white"/>
</svg>
