<svg width="27" height="24" viewBox="0 0 27 24" fill="none" xmlns="http://www.w3.org/2000/svg">
<path d="M3.63462 24H1.55769C1.14457 24 0.748362 23.8736 0.456238 23.6485C0.164114 23.4235 0 23.1183 0 22.8V15.6C0 15.2817 0.164114 14.9765 0.456238 14.7515C0.748362 14.5264 1.14457 14.4 1.55769 14.4H3.63462C4.04774 14.4 4.44395 14.5264 4.73607 14.7515C5.02819 14.9765 5.19231 15.2817 5.19231 15.6V22.8C5.19231 23.1183 5.02819 23.4235 4.73607 23.6485C4.44395 23.8736 4.04774 24 3.63462 24ZM18.1731 24H16.0962C15.683 24 15.2868 23.8736 14.9947 23.6485C14.7026 23.4235 14.5385 23.1183 14.5385 22.8V10.8C14.5385 10.4817 14.7026 10.1765 14.9947 9.95147C15.2868 9.72643 15.683 9.6 16.0962 9.6H18.1731C18.5862 9.6 18.9824 9.72643 19.2745 9.95147C19.5667 10.1765 19.7308 10.4817 19.7308 10.8V22.8C19.7308 23.1183 19.5667 23.4235 19.2745 23.6485C18.9824 23.8736 18.5862 24 18.1731 24ZM25.4423 24H23.3654C22.9523 24 22.5561 23.8736 22.2639 23.6485C21.9718 23.4235 21.8077 23.1183 21.8077 22.8V5.2C21.8077 4.88174 21.9718 4.57652 22.2639 4.35147C22.5561 4.12643 22.9523 4 23.3654 4H25.4423C25.8554 4 26.2516 4.12643 26.5438 4.35147C26.8359 4.57652 27 4.88174 27 5.2V22.8C27 23.1183 26.8359 23.4235 26.5438 23.6485C26.2516 23.8736 25.8554 24 25.4423 24ZM10.9038 24H8.82692C8.4138 24 8.01759 23.8736 7.72547 23.6485C7.43334 23.4235 7.26923 23.1183 7.26923 22.8V1.2C7.26923 0.88174 7.43334 0.576516 7.72547 0.351472C8.01759 0.126428 8.4138 0 8.82692 0H10.9038C11.317 0 11.7132 0.126428 12.0053 0.351472C12.2974 0.576516 12.4615 0.88174 12.4615 1.2V22.8C12.4615 23.1183 12.2974 23.4235 12.0053 23.6485C11.7132 23.8736 11.317 24 10.9038 24Z" fill="white"/>
</svg>
