<svg width="33" height="25" viewBox="0 0 33 25" fill="none" xmlns="http://www.w3.org/2000/svg">
<path d="M10.5345 3.33357C10.5345 5.17474 9.04194 6.66724 7.20086 6.66724C5.35969 6.66724 3.86719 5.17474 3.86719 3.33357C3.86719 1.4925 5.35969 0 7.20086 0C9.04194 0 10.5345 1.4925 10.5345 3.33357Z" fill="white"/>
<path fill-rule="evenodd" clip-rule="evenodd" d="M3.30025 14.2811C2.77743 15.1169 1.67568 15.3715 0.839533 14.8489C0.00320733 14.3262 -0.251026 13.2245 0.271673 12.3882L0.274977 12.3829L0.281316 12.3728L0.302852 12.3388C0.321048 12.3102 0.346843 12.27 0.379477 12.2196C0.444665 12.1192 0.537594 11.9779 0.652183 11.8094C0.879613 11.4751 1.20043 11.0213 1.56467 10.5605C1.92056 10.1102 2.35817 9.60167 2.82073 9.18917C3.05194 8.98301 3.33084 8.76319 3.64541 8.58676C3.94211 8.42033 4.40604 8.21533 4.97247 8.21533H9.43365C10.0002 8.21533 10.4641 8.42033 10.7608 8.58676C11.0754 8.76319 11.3543 8.98301 11.5855 9.18917C12.048 9.60167 12.4856 10.1102 12.8415 10.5605C13.2058 11.0213 13.5266 11.4751 13.754 11.8094C13.8686 11.9779 13.9615 12.1192 14.0267 12.2196C14.0594 12.27 14.0851 12.3102 14.1033 12.3388L14.1249 12.3728L14.1313 12.3829L14.134 12.3874C14.134 12.3874 14.1033 12.3388 14.1346 12.3882C14.6573 13.2245 14.403 14.3262 13.5667 14.8489C12.7305 15.3715 11.6289 15.1175 11.1062 14.2814L11.1036 14.2773L11.0898 14.2555C11.077 14.2353 11.0569 14.204 11.0304 14.1631C11.0088 14.1299 10.9831 14.0905 10.9536 14.0458V16.2636L11.5994 23.045C11.6913 24.0105 10.9958 24.8729 10.0327 24.9875C9.06963 25.102 8.19115 24.427 8.05392 23.4668L7.14311 17.0911L6.2323 23.4668C6.09516 24.427 5.21667 25.102 4.25354 24.9875C3.29046 24.8729 2.59492 24.0105 2.68687 23.045L3.43605 15.1786H3.45289V14.0454C3.42325 14.0902 3.39742 14.1298 3.3758 14.1631C3.34931 14.204 3.32927 14.2353 3.3164 14.2555L3.30262 14.2773L3.30025 14.2811Z" fill="white"/>
<path d="M28.3933 3.33331C28.3933 5.17429 26.9009 6.6667 25.0599 6.6667C23.219 6.6667 21.7266 5.17429 21.7266 3.33331C21.7266 1.49241 23.219 0 25.0599 0C26.9009 0 28.3933 1.49241 28.3933 3.33331Z" fill="white"/>
<path fill-rule="evenodd" clip-rule="evenodd" d="M21.1643 14.0936C20.6456 14.9323 19.5452 15.1922 18.7064 14.6737C17.8675 14.1551 17.6079 13.0547 18.1264 12.2158L18.1297 12.2106L18.1359 12.2005L18.1572 12.1665C18.1752 12.1379 18.2007 12.0975 18.233 12.0473C18.2974 11.9468 18.3893 11.8056 18.5026 11.6372C18.7275 11.3029 19.0448 10.849 19.4051 10.3882C19.757 9.93806 20.19 9.42913 20.6482 9.016C20.8772 8.80957 21.154 8.58877 21.4672 8.41127C21.762 8.24404 22.2269 8.03564 22.7966 8.03564H27.2084C27.7781 8.03564 28.243 8.24404 28.5378 8.41127C28.851 8.58877 29.1279 8.80957 29.3569 9.016C29.815 9.42913 30.248 9.93806 30.6 10.3882C30.9602 10.849 31.2775 11.3029 31.5024 11.6372C31.6157 11.8056 31.7076 11.9468 31.772 12.0473C31.8043 12.0975 31.8298 12.1379 31.8478 12.1665L31.8691 12.2005C31.8856 12.227 31.8787 12.2158 31.8787 12.2158C32.3972 13.0547 32.1375 14.1551 31.2986 14.6737C30.4599 15.1921 29.3599 14.9326 28.8411 14.0943L28.8384 14.0898L28.8247 14.0681C28.812 14.0479 28.7922 14.0165 28.766 13.9757C28.7135 13.8939 28.6359 13.7746 28.539 13.6306C28.4988 13.5708 28.4556 13.5073 28.4099 13.4409C28.8272 15.5217 29.6504 18.3745 30.0815 19.8179C30.2298 20.3145 29.9297 20.8368 29.4225 20.9426C26.2639 21.6009 24.0532 21.5838 20.624 20.9307C20.1015 20.8312 19.788 20.295 19.9456 19.7871C20.3957 18.3377 21.2346 15.5143 21.6318 13.3878C21.5723 13.4736 21.5168 13.555 21.466 13.6306C21.3691 13.7746 21.2915 13.8939 21.239 13.9757C21.2128 14.0165 21.193 14.0479 21.1803 14.0681L21.1666 14.0898L21.1643 14.0936ZM21.0739 22.4567V23.6607C21.0739 24.3323 21.5713 24.9 22.2371 24.9883C22.9029 25.0766 23.5311 24.6581 23.7062 24.0097L24.0591 22.7021C23.093 22.6694 22.1117 22.588 21.0739 22.4567ZM26.1232 22.6976L26.4774 24.0096C26.6524 24.658 27.2806 25.0765 27.9464 24.9882C28.6122 24.8999 29.1096 24.3321 29.1096 23.6605V22.4443C28.0714 22.5763 27.0898 22.661 26.1232 22.6976Z" fill="white"/>
</svg>
