<svg width="30" height="24" viewBox="0 0 30 24" fill="none" xmlns="http://www.w3.org/2000/svg">
<path d="M15 14.1174C16.8013 14.1174 18.4317 13.3268 19.6122 12.0492C20.7913 10.773 21.5217 9.00832 21.5217 7.0587C21.5217 5.10909 20.7913 3.34441 19.6122 2.0682C18.4317 0.790575 16.8013 0 15 0C13.1987 0 11.5683 0.790575 10.3878 2.0682C9.2087 3.34441 8.47826 5.10909 8.47826 7.0587C8.47826 9.00832 9.2087 10.773 10.3878 12.0492C10.9928 12.7058 11.7117 13.2266 12.5032 13.5815C13.2947 13.9364 14.1432 14.1185 15 14.1174ZM25.4348 15.5291C25.8632 15.5301 26.2877 15.4394 26.6837 15.2624C27.0797 15.0853 27.4395 14.8254 27.7425 14.4975C28.0455 14.1696 28.2856 13.7801 28.4492 13.3515C28.6128 12.9229 28.6965 12.4635 28.6957 11.9998C28.6957 11.0257 28.3317 10.1434 27.7409 9.50384C27.4384 9.17563 27.0789 8.91537 26.6831 8.73802C26.2874 8.56068 25.8631 8.46974 25.4348 8.47044C25.0063 8.46951 24.5819 8.56017 24.1859 8.7372C23.7899 8.91424 23.4301 9.17418 23.1271 9.50209C22.8241 9.83001 22.584 10.2194 22.4204 10.6481C22.2568 11.0767 22.1731 11.5361 22.1739 11.9998C22.1732 12.4635 22.2571 12.9228 22.4207 13.3513C22.5844 13.7798 22.8245 14.1692 23.1275 14.4971C23.4304 14.825 23.7902 15.0849 24.1861 15.262C24.582 15.4391 25.0064 15.5299 25.4348 15.5291ZM25.4348 16.3621C23.6987 16.3621 22.393 16.9352 21.63 17.7286C20.1757 16.4341 17.8761 15.5291 15 15.5291C12.0443 15.5291 9.78913 16.444 8.35826 17.7371C7.58087 16.9395 6.26087 16.3621 4.56522 16.3621C1.7113 16.3621 0 17.9009 0 19.4425C0 20.2119 1.7113 20.9841 4.56522 20.9841C5.35304 20.9841 6.06 20.9121 6.68217 20.7964L6.63 21.1775C6.63 22.5893 9.76826 24.001 15 24.001C19.907 24.001 23.37 22.5893 23.37 21.1775L23.3439 20.8175C23.9478 20.9206 24.6417 20.9841 25.4348 20.9841C28.11 20.9841 30 20.2119 30 19.4425C30 17.9009 28.2091 16.3621 25.4348 16.3621ZM4.56522 15.5291C5.46522 15.5291 6.28044 15.1353 6.8713 14.4958C7.17455 14.1683 7.41501 13.7793 7.57886 13.3509C7.74272 12.9226 7.82674 12.4634 7.82609 11.9998C7.82695 11.5361 7.74319 11.0767 7.57962 10.6481C7.41605 10.2194 7.17589 9.83001 6.87292 9.50209C6.56995 9.17418 6.21013 8.91424 5.81411 8.7372C5.4181 8.56017 4.99368 8.46951 4.56522 8.47044C4.1368 8.4697 3.71246 8.56048 3.31652 8.73758C2.92059 8.91469 2.56084 9.17463 2.2579 9.50251C1.95497 9.83039 1.7148 10.2198 1.55117 10.6483C1.38754 11.0768 1.30366 11.5361 1.30435 11.9998C1.30349 12.4635 1.38725 12.9229 1.55082 13.3515C1.71439 13.7801 1.95455 14.1696 2.25752 14.4975C2.56049 14.8254 2.92031 15.0853 3.31632 15.2624C3.71234 15.4394 4.13675 15.5301 4.56522 15.5291Z" fill="white"/>
</svg>
