<svg width="63" height="64" viewBox="0 0 63 64" fill="none" xmlns="http://www.w3.org/2000/svg">
<path d="M31.5 0C48.8974 0 63 14.3264 63 32C63 49.6736 48.8974 64 31.5 64C14.1026 64 0 49.6736 0 32C0 14.3264 14.1026 0 31.5 0ZM31.5 6.4C24.8165 6.4 18.4068 9.09714 13.6809 13.8981C8.95499 18.699 6.3 25.2105 6.3 32C6.3 38.7895 8.95499 45.301 13.6809 50.1019C18.4068 54.9029 24.8165 57.6 31.5 57.6C38.1835 57.6 44.5932 54.9029 49.3191 50.1019C54.045 45.301 56.7 38.7895 56.7 32C56.7 25.2105 54.045 18.699 49.3191 13.8981C44.5932 9.09714 38.1835 6.4 31.5 6.4ZM31.5 41.6C32.3354 41.6 33.1366 41.9371 33.7274 42.5373C34.3181 43.1374 34.65 43.9513 34.65 44.8C34.65 45.6487 34.3181 46.4626 33.7274 47.0627C33.1366 47.6629 32.3354 48 31.5 48C30.6646 48 29.8634 47.6629 29.2726 47.0627C28.6819 46.4626 28.35 45.6487 28.35 44.8C28.35 43.9513 28.6819 43.1374 29.2726 42.5373C29.8634 41.9371 30.6646 41.6 31.5 41.6ZM31.5 12.8C32.3354 12.8 33.1366 13.1371 33.7274 13.7373C34.3181 14.3374 34.65 15.1513 34.65 16V35.2C34.65 36.0487 34.3181 36.8626 33.7274 37.4627C33.1366 38.0629 32.3354 38.4 31.5 38.4C30.6646 38.4 29.8634 38.0629 29.2726 37.4627C28.6819 36.8626 28.35 36.0487 28.35 35.2V16C28.35 15.1513 28.6819 14.3374 29.2726 13.7373C29.8634 13.1371 30.6646 12.8 31.5 12.8Z" fill="#DE5757"/>
</svg>
