<svg width="29" height="32" viewBox="0 0 29 32" fill="none" xmlns="http://www.w3.org/2000/svg">
<path d="M8.00811 14.5333C8.00811 15.9324 6.87388 17.0667 5.47473 17.0667C4.07564 17.0667 2.94141 15.9324 2.94141 14.5333C2.94141 13.1342 4.07564 12 5.47473 12C6.87388 12 8.00811 13.1342 8.00811 14.5333Z" fill="white"/>
<path fill-rule="evenodd" clip-rule="evenodd" d="M2.51175 22.7114C2.11757 23.3488 1.28122 23.5463 0.643771 23.1523C0.0061826 22.7582 -0.191147 21.9218 0.202901 21.2843L0.205412 21.2803L0.210162 21.2727L0.226381 21.2468C0.24002 21.2251 0.259426 21.1944 0.283923 21.1562C0.332916 21.0799 0.402741 20.9726 0.488852 20.8446C0.659785 20.5905 0.900951 20.2456 1.17476 19.8954C1.44218 19.5532 1.77129 19.1665 2.11953 18.8525C2.29352 18.6956 2.50395 18.5278 2.74192 18.3929C2.96599 18.2658 3.31932 18.1074 3.75232 18.1074H7.10522C7.53822 18.1074 7.89155 18.2658 8.11561 18.3929C8.35359 18.5278 8.56409 18.6956 8.73807 18.8525C9.08625 19.1665 9.41536 19.5532 9.68285 19.8954C9.95659 20.2456 10.1978 20.5905 10.3687 20.8446C10.4548 20.9726 10.5246 21.0799 10.5736 21.1562C10.5981 21.1944 10.6175 21.2251 10.6312 21.2468L10.6474 21.2727C10.6599 21.2928 10.6546 21.2843 10.6546 21.2843C11.0488 21.9218 10.8514 22.7582 10.2138 23.1523C9.57638 23.5463 8.74038 23.3491 8.34613 22.712L8.34402 22.7086L8.33364 22.692C8.32401 22.6767 8.30894 22.6529 8.28899 22.6218C8.24909 22.5596 8.19012 22.469 8.1165 22.3595C8.08596 22.3141 8.05312 22.2659 8.01838 22.2154C8.33554 23.7968 8.96119 25.9649 9.2888 27.0619C9.40151 27.4393 9.17344 27.8362 8.78795 27.9166C6.38742 28.417 4.70728 28.4039 2.10114 27.9076C1.70404 27.832 1.46573 27.4245 1.58556 27.0384C1.92763 25.9369 2.56515 23.7912 2.86705 22.175C2.82186 22.2402 2.77965 22.3021 2.74104 22.3595C2.66741 22.469 2.60845 22.5596 2.56855 22.6218C2.5486 22.6529 2.53353 22.6767 2.5239 22.692L2.51351 22.7086L2.51175 22.7114ZM2.44301 29.0674V29.9823C2.44301 30.4928 2.82104 30.9243 3.32706 30.9913C3.83307 31.0584 4.31051 30.7404 4.44358 30.2476L4.71182 29.2538C3.97754 29.229 3.23178 29.1671 2.44301 29.0674ZM6.28048 29.2504L6.54967 30.2475C6.68267 30.7403 7.16012 31.0583 7.66613 30.9912C8.17214 30.9241 8.55017 30.4926 8.55017 29.9822V29.0579C7.76113 29.1582 7.0151 29.2226 6.28048 29.2504Z" fill="white"/>
<path fill-rule="evenodd" clip-rule="evenodd" d="M23.0623 3.61012C23.0623 5.60395 21.4674 7.22024 19.5 7.22024C17.5326 7.22024 15.9376 5.60395 15.9376 3.61012C15.9376 1.61631 17.5326 0 19.5 0C21.4674 0 23.0623 1.61631 23.0623 3.61012ZM15.146 13.6382C15.146 15.6684 13.2969 22.4992 12.6199 24.9321C12.4909 25.3958 12.7904 25.8702 13.2606 25.9418C18.0001 26.6643 21.0033 26.6405 25.7425 25.9371C26.2116 25.8676 26.5139 25.3986 26.3888 24.9351C25.7194 22.4548 23.8559 15.3932 23.854 13.641V13.6382V12.4307C24.1687 12.8324 24.4626 13.4297 24.6431 14.0756L24.6605 14.1376C24.7706 14.5316 24.812 14.6797 24.8509 14.8285C24.8744 14.9182 24.8969 15.0081 24.9331 15.1521C25.0349 15.5576 25.2445 16.3924 25.8852 18.8601C26.1077 19.717 26.9736 20.2289 27.8193 20.0034C28.6649 19.7778 29.17 18.9003 28.9475 18.0434C28.3379 15.6961 28.1212 14.8349 28.0098 14.3923C27.8956 13.9387 27.8922 13.9251 27.6897 13.2008C27.4169 12.2249 26.9521 11.2203 26.3247 10.4236C25.7327 9.67183 24.7628 8.82474 23.4581 8.82474H19.5H15.5418C14.2372 8.82474 13.2673 9.67183 12.6752 10.4236C12.0479 11.2203 11.5831 12.2249 11.3103 13.2008C11.1078 13.9251 11.1044 13.9386 10.9902 14.3923C10.8789 14.8348 10.6621 15.6959 10.0525 18.0434C9.82994 18.9003 10.3351 19.7778 11.1807 20.0034C12.0263 20.2289 12.8922 19.717 13.1148 18.8601C13.7556 16.3924 13.9651 15.5576 14.0669 15.1521C14.103 15.0081 14.1256 14.9181 14.1491 14.8285C14.188 14.6798 14.2294 14.5316 14.3396 14.1377L14.3569 14.0756C14.5375 13.4297 14.8312 12.8323 15.146 12.4307V13.6382ZM15.146 30.7965V27.7341C16.2618 27.9016 17.2941 28.0074 18.3026 28.053L17.4791 31.1131C17.3226 31.6948 16.7655 32.0693 16.1758 31.9893C15.5862 31.9092 15.146 31.3994 15.146 30.7965ZM21.5209 31.1131L20.696 28.0479C21.705 27.9983 22.7378 27.8895 23.854 27.723V30.7965C23.854 31.3994 23.4138 31.9092 22.8241 31.9893C22.2345 32.0693 21.6774 31.6948 21.5209 31.1131Z" fill="white"/>
</svg>
